<svg width="48" height="65" viewBox="0 0 48 65" fill="none" xmlns="http://www.w3.org/2000/svg">
<path d="M47.4861 37.1599L47.4861 37.1622C47.4866 37.2735 47.4872 37.3846 47.4878 37.4954C47.5041 40.6186 47.5196 43.5707 46.747 46.4777C44.4225 55.2246 36.7069 62.0039 27.4635 63.2954C24.242 63.7455 21.0509 63.5893 17.9118 62.7515C16.8484 62.4677 16.156 61.6499 16.1417 60.7883C16.1276 59.9357 16.5529 59.2899 17.3955 58.8643C17.9212 58.5988 18.4973 58.6434 19.208 58.7981C26.3897 60.3612 32.694 58.6981 37.8531 53.5821C41.1678 50.295 43.0139 46.2616 43.0525 41.5979C43.0878 37.3241 43.0803 33.048 43.0728 28.7747C43.0692 26.6708 43.0655 24.5675 43.0669 22.4656C43.0686 19.9537 42.3594 17.6279 41.3741 15.3924L40.9165 15.5941L41.3741 15.3924C41.0073 14.5603 41.1416 13.7886 41.5525 13.254C41.9653 12.7168 42.6967 12.3688 43.6255 12.4784C44.4031 12.5702 44.9428 12.9911 45.2798 13.6866C46.66 16.5356 47.4271 19.5325 47.467 22.658C47.51 26.0173 47.5016 29.3751 47.493 32.7689C47.4894 34.2249 47.4857 35.6876 47.4861 37.1599Z" fill="white" stroke="black"/>
<path d="M8.5105 12.2592L8.50545 12.2657L8.50061 12.2723C5.87461 15.8537 4.71131 19.7946 4.81167 24.0977C4.83003 24.8848 4.70122 25.4035 4.4697 25.7626C4.24414 26.1124 3.87843 26.3763 3.28017 26.5671C1.96423 26.9869 0.66313 26.1173 0.564252 24.8341C-0.2193 14.6658 6.23455 5.11755 16.2623 1.81617C23.7764 -0.657649 30.8278 0.397746 37.4277 4.62916C38.3045 5.19129 38.7345 5.88326 38.6013 6.76879C38.4659 7.66975 37.8811 8.25141 36.8754 8.52862C36.2611 8.69795 35.7203 8.51436 35.1271 8.11962C32.4765 6.35582 29.5751 5.21842 26.3453 4.85317C21.2471 4.27663 16.6208 5.43901 12.4896 8.38992C10.9733 9.47298 9.68003 10.7691 8.5105 12.2592Z" fill="white" stroke="black"/>
<path d="M32.3357 31.614V31.6136C32.3356 30.6112 32.3247 29.623 32.314 28.6443C32.2906 26.5033 32.2676 24.4077 32.3582 22.3079C32.5986 16.7401 27.1655 12.3545 21.2037 14.1805C20.3525 14.4413 19.5937 14.2628 19.0814 13.8504C18.5712 13.4397 18.2681 12.7682 18.379 11.9507C18.442 11.4858 18.6206 11.1349 18.8824 10.8648C19.1489 10.5899 19.5249 10.3753 20.0135 10.2287C24.0365 9.0216 27.804 9.52518 31.2358 11.8387C34.9532 14.3448 36.6878 17.8988 36.7165 22.2484C36.7596 28.772 36.7465 35.2967 36.7164 41.8224C36.7096 43.292 36.5395 44.7321 36.0271 46.0921C35.5461 47.3684 34.3858 47.9268 33.1475 47.5236C32.0698 47.1726 31.5028 46.0224 31.9277 44.7491C32.1883 43.9683 32.3349 43.1657 32.3329 42.326C32.3268 39.7292 32.3298 37.1327 32.3328 34.4987C32.3339 33.5427 32.335 32.5817 32.3357 31.614Z" fill="white" stroke="black"/>
<path d="M11.2825 23.8492L11.2825 23.8471C11.2816 23.6356 11.2797 23.4272 11.2779 23.2216C11.2642 21.7162 11.2519 20.3618 11.6462 19.0384C12.0817 17.5764 13.733 16.992 14.9975 17.8726C15.6908 18.3554 15.987 19.0127 15.866 19.8021L16.3602 19.8779L15.866 19.8021C15.8561 19.8665 15.8459 19.9319 15.8354 19.9983C15.765 20.446 15.6879 20.937 15.6877 21.434C15.6871 23.2615 15.6843 25.0897 15.6815 26.9181C15.6735 32.1757 15.6656 37.4361 15.7088 42.6953C15.7363 46.0309 18.1703 48.9423 21.4026 49.9172C22.743 50.3215 24.0996 50.2668 25.3725 50.1849C26.153 50.1346 26.7818 50.3127 27.2499 50.7969C27.8356 51.4029 28.0792 52.0073 27.8291 52.733C27.5383 53.5771 27.0063 54.1007 26.1502 54.2565C23.0926 54.813 20.208 54.2939 17.5797 52.7379C13.4561 50.2965 11.331 46.7192 11.2937 42.053C11.2599 37.8449 11.2677 33.638 11.2756 29.3969C11.279 27.5551 11.2825 25.7068 11.2825 23.8492Z" fill="white" stroke="black"/>
<path d="M1.27612 33.254C1.70822 32.9198 2.39827 32.7608 3.40783 32.9243C3.93593 33.1539 4.27079 33.4424 4.48236 33.7731C4.70282 34.1177 4.81769 34.5524 4.82853 35.1082C4.84476 35.9409 4.83623 36.7896 4.82761 37.6468C4.81046 39.3517 4.79297 41.0905 4.96933 42.8051C5.41594 47.1474 7.2864 50.808 10.3818 53.905C10.7481 54.2714 11.025 54.6158 11.1759 54.9714C11.3188 55.3082 11.3564 55.6726 11.2077 56.1161C10.6684 57.7247 8.81749 58.2061 7.50968 56.9833C5.33765 54.9523 3.67479 52.5643 2.46103 49.8808C1.13171 46.9417 0.461468 43.8885 0.545924 40.6809C0.576154 39.5329 0.568346 38.372 0.560602 37.2208C0.555876 36.5181 0.551173 35.8189 0.555164 35.1286C0.560634 34.1821 0.844539 33.5878 1.27612 33.254Z" fill="white" stroke="black"/>
</svg>
