<svg xmlns="http://www.w3.org/2000/svg" version="1.1" xmlns:xlink="http://www.w3.org/1999/xlink" xmlns:svgjs="http://svgjs.dev/svgjs" width="1000" height="1000"><style>
    #light-icon {
      display: inline;
    }
    #dark-icon {
      display: none;
    }

    @media (prefers-color-scheme: dark) {
      #light-icon {
        display: none;
      }
      #dark-icon {
        display: inline;
      }
    }
  </style><g id="light-icon"><svg xmlns="http://www.w3.org/2000/svg" version="1.1" xmlns:xlink="http://www.w3.org/1999/xlink" xmlns:svgjs="http://svgjs.dev/svgjs" width="1000" height="1000"><g><g transform="matrix(15.384615384615385,0,0,15.384615384615385,130.76923076923077,0)"><svg xmlns="http://www.w3.org/2000/svg" version="1.1" xmlns:xlink="http://www.w3.org/1999/xlink" xmlns:svgjs="http://svgjs.dev/svgjs" width="48" height="65"><svg width="48" height="65" viewBox="0 0 48 65" fill="none" xmlns="http://www.w3.org/2000/svg">
<path d="M47.9861 37.1598C48.002 40.39 48.0506 43.5194 47.2303 46.6061C44.8527 55.5526 36.97 62.472 27.5327 63.7906C24.2492 64.2493 20.9905 64.0907 17.7829 63.2346C16.5575 62.9076 15.6606 61.9328 15.6418 60.7966C15.624 59.7243 16.1829 58.9166 17.1701 58.418C17.8598 58.0697 18.5856 58.1509 19.3143 58.3095C26.3413 59.8389 32.4699 58.2161 37.501 53.227C40.7301 50.0249 42.5151 46.1147 42.5525 41.5938C42.6052 35.218 42.5626 28.8415 42.5669 22.4653C42.5686 20.0492 41.8868 17.7955 40.9165 15.5941C40.044 13.6146 41.5053 11.7247 43.6841 11.9819C44.6464 12.0954 45.3254 12.6339 45.7297 13.4686C47.1389 16.3773 47.926 19.4461 47.967 22.6516C48.0284 27.4562 47.9849 32.262 47.9861 37.1598Z" fill="black"></path>
<path d="M8.90383 12.5679C6.34559 16.057 5.21365 19.8889 5.31154 24.086C5.35068 25.7644 4.77455 26.6152 3.43213 27.0435C1.82925 27.5548 0.191012 26.4984 0.0657296 24.8726C-0.736115 14.4669 5.86723 4.71208 16.1059 1.34125C23.7701 -1.18197 30.9774 -0.100288 37.6976 4.20824C38.6744 4.83446 39.2683 5.69549 39.0958 6.84313C38.9247 7.98087 38.1606 8.69303 37.0083 9.01064C36.1941 9.23507 35.4998 8.96826 34.8501 8.53588C32.2595 6.81199 29.4329 5.70552 26.2891 5.35C21.3102 4.78695 16.8081 5.91967 12.7802 8.79678C11.3091 9.84756 10.0493 11.1084 8.90383 12.5679Z" fill="black"></path>
<path d="M31.8357 31.6136C31.8353 28.4426 31.726 25.3596 31.8587 22.2864C32.0836 17.0769 26.9948 12.9297 21.3501 14.6586C19.3539 15.2701 17.616 13.8557 17.8835 11.8835C18.0365 10.7553 18.7746 10.0784 19.8698 9.74981C24.0287 8.50192 27.9527 9.0224 31.5153 11.4241C35.379 14.0288 37.1867 17.7421 37.2165 22.2451C37.2596 28.7714 37.2465 35.2983 37.2164 41.8247C37.2095 43.3293 37.0355 44.8337 36.4949 46.2684C35.9232 47.7857 34.4944 48.488 32.9926 47.999C31.6134 47.5498 30.9537 46.0882 31.4535 44.5909C31.699 43.8551 31.8348 43.1064 31.8329 42.3272C31.8245 38.7869 31.8331 35.2465 31.8357 31.6136Z" fill="black"></path>
<path d="M10.7825 23.8492C10.7753 22.1263 10.6924 20.4888 11.167 18.8956C11.6998 17.1073 13.7391 16.387 15.2833 17.4623C16.121 18.0457 16.5123 18.8858 16.3602 19.8779C16.2807 20.3966 16.1879 20.9115 16.1877 21.4341C16.1853 28.5199 16.1505 35.6059 16.2088 42.6912C16.2342 45.7814 18.4979 48.5189 21.547 49.4385C22.7919 49.8139 24.0663 49.7679 25.3404 49.6859C26.2168 49.6295 27.0086 49.828 27.6093 50.4494C28.2686 51.1314 28.6361 51.9258 28.3018 52.8959C27.9621 53.8818 27.3019 54.5551 26.2397 54.7484C23.0645 55.3263 20.0576 54.7859 17.325 53.1681C13.0578 50.6417 10.8325 46.9066 10.7937 42.057C10.7453 36.0189 10.7824 29.9801 10.7825 23.8492Z" fill="black"></path>
<path d="M3.54894 32.441C4.8127 32.9687 5.3043 33.8612 5.32843 35.0985C5.37818 37.6498 5.20407 40.2005 5.4667 42.754C5.90053 46.972 7.71385 50.5284 10.7355 53.5515C11.4974 54.3138 12.06 55.1468 11.6818 56.275C11.0226 58.2414 8.73211 58.8108 7.16819 57.3485C4.94491 55.2696 3.24458 52.8264 2.00546 50.0868C0.647534 47.0846 -0.0405002 43.9566 0.0460974 40.6678C0.0947112 38.8215 0.0444936 36.9731 0.055172 35.1257C0.0672114 33.0428 1.31871 32.0576 3.54894 32.441Z" fill="black"></path>
</svg></svg></g></g></svg></g><g id="dark-icon"><svg xmlns="http://www.w3.org/2000/svg" version="1.1" xmlns:xlink="http://www.w3.org/1999/xlink" xmlns:svgjs="http://svgjs.dev/svgjs" width="1000" height="1000"><g clip-path="url(#SvgjsClipPath1009)"><rect width="1000" height="1000" fill="#ffffff"></rect><g transform="matrix(10.76923076923077,0,0,10.76923076923077,241.53846153846155,150)"><svg xmlns="http://www.w3.org/2000/svg" version="1.1" xmlns:xlink="http://www.w3.org/1999/xlink" xmlns:svgjs="http://svgjs.dev/svgjs" width="48" height="65"><svg width="48" height="65" viewBox="0 0 48 65" fill="none" xmlns="http://www.w3.org/2000/svg">
<path d="M47.9861 37.1598C48.002 40.39 48.0506 43.5194 47.2303 46.6061C44.8527 55.5526 36.97 62.472 27.5327 63.7906C24.2492 64.2493 20.9905 64.0907 17.7829 63.2346C16.5575 62.9076 15.6606 61.9328 15.6418 60.7966C15.624 59.7243 16.1829 58.9166 17.1701 58.418C17.8598 58.0697 18.5856 58.1509 19.3143 58.3095C26.3413 59.8389 32.4699 58.2161 37.501 53.227C40.7301 50.0249 42.5151 46.1147 42.5525 41.5938C42.6052 35.218 42.5626 28.8415 42.5669 22.4653C42.5686 20.0492 41.8868 17.7955 40.9165 15.5941C40.044 13.6146 41.5053 11.7247 43.6841 11.9819C44.6464 12.0954 45.3254 12.6339 45.7297 13.4686C47.1389 16.3773 47.926 19.4461 47.967 22.6516C48.0284 27.4562 47.9849 32.262 47.9861 37.1598Z" fill="black"></path>
<path d="M8.90383 12.5679C6.34559 16.057 5.21365 19.8889 5.31154 24.086C5.35068 25.7644 4.77455 26.6152 3.43213 27.0435C1.82925 27.5548 0.191012 26.4984 0.0657296 24.8726C-0.736115 14.4669 5.86723 4.71208 16.1059 1.34125C23.7701 -1.18197 30.9774 -0.100288 37.6976 4.20824C38.6744 4.83446 39.2683 5.69549 39.0958 6.84313C38.9247 7.98087 38.1606 8.69303 37.0083 9.01064C36.1941 9.23507 35.4998 8.96826 34.8501 8.53588C32.2595 6.81199 29.4329 5.70552 26.2891 5.35C21.3102 4.78695 16.8081 5.91967 12.7802 8.79678C11.3091 9.84756 10.0493 11.1084 8.90383 12.5679Z" fill="black"></path>
<path d="M31.8357 31.6136C31.8353 28.4426 31.726 25.3596 31.8587 22.2864C32.0836 17.0769 26.9948 12.9297 21.3501 14.6586C19.3539 15.2701 17.616 13.8557 17.8835 11.8835C18.0365 10.7553 18.7746 10.0784 19.8698 9.74981C24.0287 8.50192 27.9527 9.0224 31.5153 11.4241C35.379 14.0288 37.1867 17.7421 37.2165 22.2451C37.2596 28.7714 37.2465 35.2983 37.2164 41.8247C37.2095 43.3293 37.0355 44.8337 36.4949 46.2684C35.9232 47.7857 34.4944 48.488 32.9926 47.999C31.6134 47.5498 30.9537 46.0882 31.4535 44.5909C31.699 43.8551 31.8348 43.1064 31.8329 42.3272C31.8245 38.7869 31.8331 35.2465 31.8357 31.6136Z" fill="black"></path>
<path d="M10.7825 23.8492C10.7753 22.1263 10.6924 20.4888 11.167 18.8956C11.6998 17.1073 13.7391 16.387 15.2833 17.4623C16.121 18.0457 16.5123 18.8858 16.3602 19.8779C16.2807 20.3966 16.1879 20.9115 16.1877 21.4341C16.1853 28.5199 16.1505 35.6059 16.2088 42.6912C16.2342 45.7814 18.4979 48.5189 21.547 49.4385C22.7919 49.8139 24.0663 49.7679 25.3404 49.6859C26.2168 49.6295 27.0086 49.828 27.6093 50.4494C28.2686 51.1314 28.6361 51.9258 28.3018 52.8959C27.9621 53.8818 27.3019 54.5551 26.2397 54.7484C23.0645 55.3263 20.0576 54.7859 17.325 53.1681C13.0578 50.6417 10.8325 46.9066 10.7937 42.057C10.7453 36.0189 10.7824 29.9801 10.7825 23.8492Z" fill="black"></path>
<path d="M3.54894 32.441C4.8127 32.9687 5.3043 33.8612 5.32843 35.0985C5.37818 37.6498 5.20407 40.2005 5.4667 42.754C5.90053 46.972 7.71385 50.5284 10.7355 53.5515C11.4974 54.3138 12.06 55.1468 11.6818 56.275C11.0226 58.2414 8.73211 58.8108 7.16819 57.3485C4.94491 55.2696 3.24458 52.8264 2.00546 50.0868C0.647534 47.0846 -0.0405002 43.9566 0.0460974 40.6678C0.0947112 38.8215 0.0444936 36.9731 0.055172 35.1257C0.0672114 33.0428 1.31871 32.0576 3.54894 32.441Z" fill="black"></path>
</svg></svg></g></g><defs><clipPath id="SvgjsClipPath1009"><rect width="1000" height="1000" x="0" y="0" rx="350" ry="350"></rect></clipPath></defs></svg></g></svg>