<svg width="190" height="47" viewBox="0 0 190 47" fill="none" xmlns="http://www.w3.org/2000/svg">
<path d="M32.9923 25.549C33.0032 27.7699 33.0366 29.9215 32.4726 32.0437C30.838 38.1948 25.4183 42.9522 18.9297 43.8588C16.6722 44.1742 14.4317 44.0651 12.2263 43.4765C11.3838 43.2517 10.7671 42.5815 10.7542 41.8003C10.742 41.0631 11.1263 40.5077 11.805 40.1649C12.2792 39.9254 12.7782 39.9813 13.2792 40.0903C18.1106 41.1419 22.3242 40.0261 25.7834 36.5959C28.0035 34.3943 29.2307 31.7058 29.2565 28.5975C29.2927 24.2139 29.2634 19.8298 29.2664 15.4459C29.2675 13.7847 28.7988 12.2352 28.1317 10.7216C27.5318 9.36064 28.5365 8.06128 30.0345 8.23806C30.6961 8.31614 31.163 8.68638 31.441 9.26023C32.4098 11.2601 32.951 13.37 32.9792 15.574C33.0214 18.8773 32.9915 22.1816 32.9923 25.549Z" fill="white"/>
<path d="M6.12177 8.64099C4.36287 11.0398 3.58461 13.6744 3.65191 16.5602C3.67882 17.7141 3.28271 18.2991 2.35974 18.5935C1.25769 18.9451 0.131329 18.2188 0.045192 17.1009C-0.506111 9.94659 4.03397 3.23976 11.0735 0.922167C16.343 -0.812659 21.2983 -0.0689526 25.9187 2.89334C26.5903 3.3239 26.9987 3.9159 26.88 4.70495C26.7624 5.48719 26.237 5.97683 25.4448 6.1952C24.885 6.34951 24.4077 6.16606 23.9609 5.86879C22.1798 4.68354 20.2364 3.92279 18.0749 3.67836C14.6517 3.29124 11.5563 4.07003 8.78692 6.04817C7.77549 6.77062 6.90934 7.63749 6.12177 8.64099Z" fill="white"/>
<path d="M21.8884 21.7358C21.8881 19.5556 21.813 17.4359 21.9042 15.3229C22.0588 11.7412 18.5601 8.88979 14.6791 10.0785C13.3066 10.4989 12.1117 9.52648 12.2956 8.17048C12.4008 7.39478 12.9083 6.92943 13.6613 6.70348C16.5207 5.84551 19.2186 6.20336 21.6681 7.85464C24.3245 9.64548 25.5674 12.1985 25.5879 15.2945C25.6175 19.7817 25.6085 24.2692 25.5878 28.7564C25.5831 29.7908 25.4635 30.8252 25.0918 31.8116C24.6987 32.8548 23.7163 33.3377 22.6838 33.0014C21.7355 32.6926 21.282 31.6877 21.6256 30.6582C21.7944 30.1523 21.8877 29.6376 21.8865 29.1018C21.8807 26.6677 21.8866 24.2335 21.8884 21.7358Z" fill="white"/>
<path d="M7.41348 16.3973C7.40853 15.2128 7.35152 14.0869 7.67784 12.9915C8.04413 11.762 9.44628 11.2667 10.5079 12.0061C11.0839 12.4072 11.3529 12.9848 11.2484 13.6669C11.1937 14.0236 11.1299 14.3775 11.1298 14.7369C11.1281 19.6086 11.1042 24.4806 11.1443 29.352C11.1618 31.4767 12.7182 33.3588 14.8145 33.9911C15.6704 34.2492 16.5466 34.2176 17.4227 34.1612C18.0252 34.1224 18.5696 34.2589 18.9827 34.6861C19.4359 35.155 19.6886 35.7012 19.4588 36.3682C19.2252 37.0461 18.7713 37.509 18.041 37.6419C15.8579 38.0392 13.7905 37.6677 11.9117 36.5553C8.97783 34.8183 7.44787 32.2503 7.42116 28.916C7.38789 24.7645 7.41338 20.6126 7.41348 16.3973Z" fill="white"/>
<path d="M2.44021 22.3046C3.3091 22.6674 3.6471 23.2811 3.66369 24.1318C3.6979 25.8859 3.57819 27.6396 3.75876 29.3953C4.05704 32.2953 5.30377 34.7405 7.38125 36.819C7.90514 37.3432 8.29191 37.9159 8.03189 38.6915C7.57865 40.0435 6.00387 40.435 4.9286 39.4296C3.40001 38.0003 2.23096 36.3205 1.37901 34.4369C0.445373 32.3727 -0.0276794 30.2221 0.0318602 27.9609C0.0652842 26.6915 0.0307575 25.4206 0.0380993 24.1505C0.0463769 22.7184 0.906835 22.041 2.44021 22.3046Z" fill="white"/>
<path d="M54.8477 8.5625H59.7305V27.5664C59.7305 29.7279 59.2617 31.5378 58.3242 32.9961C57.3867 34.4544 56.1107 35.5547 54.4961 36.2969C52.8945 37.026 51.1042 37.3906 49.125 37.3906C47.0807 37.3906 45.2578 37.026 43.6562 36.2969C42.0547 35.5547 40.7917 34.4544 39.8672 32.9961C38.9557 31.5378 38.5 29.7279 38.5 27.5664V8.5625H43.3828V27.5664C43.3828 28.9336 43.6172 30.0599 44.0859 30.9453C44.5547 31.8177 45.2188 32.4622 46.0781 32.8789C46.9375 33.2956 47.9531 33.5039 49.125 33.5039C50.2969 33.5039 51.306 33.2956 52.1523 32.8789C53.0117 32.4622 53.6758 31.8177 54.1445 30.9453C54.6133 30.0599 54.8477 28.9336 54.8477 27.5664V8.5625ZM69.2617 20.3789V37H64.5547V15.8672H68.9883L69.2617 20.3789ZM68.4219 25.6523L66.8984 25.6328C66.9115 24.1354 67.1198 22.7617 67.5234 21.5117C67.9401 20.2617 68.513 19.1875 69.2422 18.2891C69.9844 17.3906 70.8698 16.7005 71.8984 16.2188C72.9271 15.724 74.0729 15.4766 75.3359 15.4766C76.3516 15.4766 77.2695 15.6198 78.0898 15.9062C78.9232 16.1797 79.6328 16.6289 80.2188 17.2539C80.8177 17.8789 81.2734 18.6927 81.5859 19.6953C81.8984 20.6849 82.0547 21.9023 82.0547 23.3477V37H77.3281V23.3281C77.3281 22.3125 77.1784 21.5117 76.8789 20.9258C76.5924 20.3268 76.1693 19.9036 75.6094 19.6562C75.0625 19.3958 74.3789 19.2656 73.5586 19.2656C72.7513 19.2656 72.0286 19.4349 71.3906 19.7734C70.7526 20.112 70.2122 20.5742 69.7695 21.1602C69.3398 21.7461 69.0078 22.4232 68.7734 23.1914C68.5391 23.9596 68.4219 24.7799 68.4219 25.6523ZM93.7344 33.2695L98.9102 15.8672H103.793L96.4492 37H93.4023L93.7344 33.2695ZM89.7695 15.8672L95.043 33.3477L95.2969 37H92.25L84.8672 15.8672H89.7695ZM115.746 37.3906C114.184 37.3906 112.771 37.1367 111.508 36.6289C110.258 36.1081 109.19 35.3854 108.305 34.4609C107.432 33.5365 106.762 32.4492 106.293 31.1992C105.824 29.9492 105.59 28.6016 105.59 27.1562V26.375C105.59 24.7214 105.831 23.224 106.312 21.8828C106.794 20.5417 107.465 19.3958 108.324 18.4453C109.184 17.4818 110.199 16.7461 111.371 16.2383C112.543 15.7305 113.812 15.4766 115.18 15.4766C116.69 15.4766 118.012 15.7305 119.145 16.2383C120.277 16.7461 121.215 17.4622 121.957 18.3867C122.712 19.2982 123.272 20.3854 123.637 21.6484C124.014 22.9115 124.203 24.3047 124.203 25.8281V27.8398H107.875V24.4609H119.555V24.0898C119.529 23.2435 119.359 22.4492 119.047 21.707C118.747 20.9648 118.285 20.3659 117.66 19.9102C117.035 19.4544 116.202 19.2266 115.16 19.2266C114.379 19.2266 113.682 19.3958 113.07 19.7344C112.471 20.0599 111.97 20.5352 111.566 21.1602C111.163 21.7852 110.85 22.5404 110.629 23.4258C110.421 24.2982 110.316 25.2812 110.316 26.375V27.1562C110.316 28.0807 110.44 28.9401 110.688 29.7344C110.948 30.5156 111.326 31.1992 111.82 31.7852C112.315 32.3711 112.914 32.8333 113.617 33.1719C114.32 33.4974 115.121 33.6602 116.02 33.6602C117.152 33.6602 118.161 33.4323 119.047 32.9766C119.932 32.5208 120.701 31.8763 121.352 31.043L123.832 33.4453C123.376 34.1094 122.784 34.7474 122.055 35.3594C121.326 35.9583 120.434 36.4466 119.379 36.8242C118.337 37.2018 117.126 37.3906 115.746 37.3906ZM132.914 15.8672V37H128.188V15.8672H132.914ZM127.875 10.3203C127.875 9.60417 128.109 9.01172 128.578 8.54297C129.06 8.0612 129.724 7.82031 130.57 7.82031C131.404 7.82031 132.061 8.0612 132.543 8.54297C133.025 9.01172 133.266 9.60417 133.266 10.3203C133.266 11.0234 133.025 11.6094 132.543 12.0781C132.061 12.5469 131.404 12.7812 130.57 12.7812C129.724 12.7812 129.06 12.5469 128.578 12.0781C128.109 11.6094 127.875 11.0234 127.875 10.3203ZM143.109 7V37H138.383V7H143.109ZM157.582 37.3906C156.02 37.3906 154.607 37.1367 153.344 36.6289C152.094 36.1081 151.026 35.3854 150.141 34.4609C149.268 33.5365 148.598 32.4492 148.129 31.1992C147.66 29.9492 147.426 28.6016 147.426 27.1562V26.375C147.426 24.7214 147.667 23.224 148.148 21.8828C148.63 20.5417 149.301 19.3958 150.16 18.4453C151.02 17.4818 152.035 16.7461 153.207 16.2383C154.379 15.7305 155.648 15.4766 157.016 15.4766C158.526 15.4766 159.848 15.7305 160.98 16.2383C162.113 16.7461 163.051 17.4622 163.793 18.3867C164.548 19.2982 165.108 20.3854 165.473 21.6484C165.85 22.9115 166.039 24.3047 166.039 25.8281V27.8398H149.711V24.4609H161.391V24.0898C161.365 23.2435 161.195 22.4492 160.883 21.707C160.583 20.9648 160.121 20.3659 159.496 19.9102C158.871 19.4544 158.038 19.2266 156.996 19.2266C156.215 19.2266 155.518 19.3958 154.906 19.7344C154.307 20.0599 153.806 20.5352 153.402 21.1602C152.999 21.7852 152.686 22.5404 152.465 23.4258C152.257 24.2982 152.152 25.2812 152.152 26.375V27.1562C152.152 28.0807 152.276 28.9401 152.523 29.7344C152.784 30.5156 153.161 31.1992 153.656 31.7852C154.151 32.3711 154.75 32.8333 155.453 33.1719C156.156 33.4974 156.957 33.6602 157.855 33.6602C158.988 33.6602 159.997 33.4323 160.883 32.9766C161.768 32.5208 162.536 31.8763 163.188 31.043L165.668 33.4453C165.212 34.1094 164.62 34.7474 163.891 35.3594C163.161 35.9583 162.27 36.4466 161.215 36.8242C160.173 37.2018 158.962 37.3906 157.582 37.3906ZM182.602 32.625V7H187.328V37H183.051L182.602 32.625ZM168.852 26.668V26.2578C168.852 24.6562 169.04 23.1979 169.418 21.8828C169.796 20.5547 170.342 19.4154 171.059 18.4648C171.775 17.5013 172.647 16.7656 173.676 16.2578C174.704 15.737 175.863 15.4766 177.152 15.4766C178.428 15.4766 179.548 15.724 180.512 16.2188C181.475 16.7135 182.296 17.4232 182.973 18.3477C183.65 19.2591 184.19 20.3529 184.594 21.6289C184.997 22.8919 185.284 24.2982 185.453 25.8477V27.1562C185.284 28.6667 184.997 30.0469 184.594 31.2969C184.19 32.5469 183.65 33.6276 182.973 34.5391C182.296 35.4505 181.469 36.1536 180.492 36.6484C179.529 37.1432 178.402 37.3906 177.113 37.3906C175.837 37.3906 174.685 37.1237 173.656 36.5898C172.641 36.056 171.775 35.3073 171.059 34.3438C170.342 33.3802 169.796 32.2474 169.418 30.9453C169.04 29.6302 168.852 28.2044 168.852 26.668ZM173.559 26.2578V26.668C173.559 27.6315 173.643 28.5299 173.812 29.3633C173.995 30.1966 174.275 30.9323 174.652 31.5703C175.03 32.1953 175.518 32.6901 176.117 33.0547C176.729 33.4062 177.458 33.582 178.305 33.582C179.372 33.582 180.251 33.3477 180.941 32.8789C181.632 32.4102 182.172 31.7786 182.562 30.9844C182.966 30.1771 183.24 29.2786 183.383 28.2891V24.7539C183.305 23.9857 183.142 23.2695 182.895 22.6055C182.66 21.9414 182.341 21.362 181.938 20.8672C181.534 20.3594 181.033 19.9688 180.434 19.6953C179.848 19.4089 179.151 19.2656 178.344 19.2656C177.484 19.2656 176.755 19.4479 176.156 19.8125C175.557 20.1771 175.062 20.6784 174.672 21.3164C174.294 21.9544 174.014 22.6966 173.832 23.543C173.65 24.3893 173.559 25.2943 173.559 26.2578Z" fill="white"/>
</svg>
