<svg width="188" height="47" viewBox="0 0 188 47" fill="none" xmlns="http://www.w3.org/2000/svg">
<path d="M32.9923 25.549C33.0032 27.7699 33.0366 29.9215 32.4726 32.0437C30.838 38.1948 25.4183 42.9522 18.9297 43.8588C16.6722 44.1742 14.4317 44.0651 12.2263 43.4765C11.3838 43.2517 10.7671 42.5815 10.7542 41.8003C10.742 41.0631 11.1263 40.5077 11.805 40.1649C12.2792 39.9254 12.7782 39.9813 13.2792 40.0903C18.1106 41.1419 22.3242 40.0261 25.7834 36.5959C28.0035 34.3943 29.2307 31.7058 29.2565 28.5975C29.2927 24.2139 29.2634 19.8298 29.2664 15.4459C29.2675 13.7847 28.7988 12.2352 28.1317 10.7216C27.5318 9.36064 28.5365 8.06128 30.0345 8.23806C30.6961 8.31614 31.163 8.68638 31.441 9.26023C32.4098 11.2601 32.951 13.37 32.9792 15.574C33.0214 18.8773 32.9915 22.1816 32.9923 25.549Z" fill="black"/>
<path d="M6.12177 8.64099C4.36287 11.0398 3.58461 13.6744 3.65191 16.5602C3.67882 17.7141 3.28271 18.2991 2.35974 18.5935C1.25769 18.9451 0.131329 18.2188 0.045192 17.1009C-0.506111 9.94659 4.03397 3.23975 11.0735 0.922167C16.343 -0.812659 21.2983 -0.0689526 25.9187 2.89334C26.5903 3.3239 26.9987 3.91589 26.88 4.70495C26.7624 5.48719 26.237 5.97683 25.4448 6.1952C24.885 6.34951 24.4077 6.16606 23.9609 5.86879C22.1798 4.68354 20.2364 3.92279 18.0749 3.67836C14.6517 3.29124 11.5563 4.07003 8.78692 6.04817C7.77549 6.77062 6.90934 7.63749 6.12177 8.64099Z" fill="black"/>
<path d="M21.8884 21.7358C21.8881 19.5556 21.813 17.4359 21.9042 15.3229C22.0588 11.7412 18.5601 8.88979 14.6791 10.0785C13.3066 10.4989 12.1117 9.52648 12.2956 8.17048C12.4008 7.39478 12.9083 6.92943 13.6613 6.70348C16.5207 5.84551 19.2186 6.20336 21.6681 7.85464C24.3245 9.64548 25.5674 12.1985 25.5879 15.2945C25.6175 19.7817 25.6085 24.2692 25.5878 28.7564C25.5831 29.7908 25.4635 30.8252 25.0918 31.8116C24.6987 32.8548 23.7163 33.3377 22.6838 33.0014C21.7355 32.6926 21.282 31.6877 21.6256 30.6582C21.7944 30.1523 21.8877 29.6376 21.8865 29.1018C21.8807 26.6677 21.8866 24.2335 21.8884 21.7358Z" fill="black"/>
<path d="M7.41348 16.3973C7.40853 15.2128 7.35152 14.0869 7.67784 12.9915C8.04413 11.762 9.44628 11.2667 10.5079 12.0061C11.0839 12.4072 11.3529 12.9848 11.2484 13.6669C11.1937 14.0236 11.1299 14.3775 11.1298 14.7369C11.1281 19.6086 11.1042 24.4806 11.1443 29.352C11.1618 31.4767 12.7182 33.3588 14.8145 33.9911C15.6704 34.2492 16.5466 34.2176 17.4227 34.1612C18.0252 34.1224 18.5696 34.2589 18.9827 34.6861C19.4359 35.155 19.6886 35.7012 19.4588 36.3682C19.2252 37.0461 18.7713 37.509 18.041 37.6419C15.8579 38.0392 13.7905 37.6677 11.9117 36.5553C8.97783 34.8183 7.44787 32.2503 7.42116 28.916C7.38789 24.7645 7.41338 20.6126 7.41348 16.3973Z" fill="black"/>
<path d="M2.44021 22.3046C3.3091 22.6674 3.6471 23.2811 3.66369 24.1318C3.6979 25.8859 3.57819 27.6396 3.75876 29.3953C4.05704 32.2953 5.30377 34.7405 7.38125 36.819C7.90514 37.3432 8.29191 37.9159 8.03189 38.6915C7.57865 40.0435 6.00387 40.435 4.9286 39.4296C3.40001 38.0003 2.23096 36.3205 1.37901 34.4369C0.445373 32.3727 -0.0276794 30.2221 0.0318602 27.9609C0.0652842 26.6915 0.0307575 25.4206 0.0380993 24.1505C0.0463769 22.7184 0.906835 22.041 2.44021 22.3046Z" fill="black"/>
<path d="M55.5703 8.5625H59.3203V27.8008C59.3203 29.9362 58.8451 31.7135 57.8945 33.1328C56.944 34.5521 55.681 35.6198 54.1055 36.3359C52.543 37.0391 50.8438 37.3906 49.0078 37.3906C47.0807 37.3906 45.3359 37.0391 43.7734 36.3359C42.224 35.6198 40.9935 34.5521 40.082 33.1328C39.1836 31.7135 38.7344 29.9362 38.7344 27.8008V8.5625H42.4648V27.8008C42.4648 29.2852 42.7383 30.5091 43.2852 31.4727C43.832 32.4362 44.5938 33.1523 45.5703 33.6211C46.5599 34.0898 47.7057 34.3242 49.0078 34.3242C50.3229 34.3242 51.4688 34.0898 52.4453 33.6211C53.4349 33.1523 54.2031 32.4362 54.75 31.4727C55.2969 30.5091 55.5703 29.2852 55.5703 27.8008V8.5625ZM68.3047 20.3789V37H64.6914V15.8672H68.1094L68.3047 20.3789ZM67.4453 25.6328L65.9414 25.5742C65.9544 24.1289 66.1693 22.7943 66.5859 21.5703C67.0026 20.3333 67.5885 19.2591 68.3438 18.3477C69.099 17.4362 69.9974 16.7331 71.0391 16.2383C72.0938 15.7305 73.2591 15.4766 74.5352 15.4766C75.5768 15.4766 76.5143 15.6198 77.3477 15.9062C78.181 16.1797 78.8906 16.6224 79.4766 17.2344C80.0755 17.8464 80.5312 18.6406 80.8438 19.6172C81.1562 20.5807 81.3125 21.7591 81.3125 23.1523V37H77.6797V23.1133C77.6797 22.0065 77.5169 21.1211 77.1914 20.457C76.8659 19.7799 76.3906 19.2917 75.7656 18.9922C75.1406 18.6797 74.3724 18.5234 73.4609 18.5234C72.5625 18.5234 71.7422 18.7122 71 19.0898C70.2708 19.4674 69.6393 19.9883 69.1055 20.6523C68.5846 21.3164 68.1745 22.0781 67.875 22.9375C67.5885 23.7839 67.4453 24.6823 67.4453 25.6328ZM93.2266 33.7383L99.0078 15.8672H102.699L95.1016 37H92.6797L93.2266 33.7383ZM88.4023 15.8672L94.3594 33.8359L94.7695 37H92.3477L84.6914 15.8672H88.4023ZM114.672 37.3906C113.201 37.3906 111.866 37.1432 110.668 36.6484C109.483 36.1406 108.461 35.431 107.602 34.5195C106.755 33.6081 106.104 32.5273 105.648 31.2773C105.193 30.0273 104.965 28.6602 104.965 27.1758V26.3555C104.965 24.6367 105.219 23.1068 105.727 21.7656C106.234 20.4115 106.924 19.2656 107.797 18.3281C108.669 17.3906 109.659 16.681 110.766 16.1992C111.872 15.7174 113.018 15.4766 114.203 15.4766C115.714 15.4766 117.016 15.737 118.109 16.2578C119.216 16.7786 120.121 17.5078 120.824 18.4453C121.527 19.3698 122.048 20.4635 122.387 21.7266C122.725 22.9766 122.895 24.3438 122.895 25.8281V27.4492H107.113V24.5H119.281V24.2266C119.229 23.2891 119.034 22.3776 118.695 21.4922C118.37 20.6068 117.849 19.8776 117.133 19.3047C116.417 18.7318 115.44 18.4453 114.203 18.4453C113.383 18.4453 112.628 18.6211 111.938 18.9727C111.247 19.3112 110.655 19.819 110.16 20.4961C109.665 21.1732 109.281 22 109.008 22.9766C108.734 23.9531 108.598 25.0794 108.598 26.3555V27.1758C108.598 28.1784 108.734 29.1224 109.008 30.0078C109.294 30.8802 109.704 31.6484 110.238 32.3125C110.785 32.9766 111.443 33.4974 112.211 33.875C112.992 34.2526 113.878 34.4414 114.867 34.4414C116.143 34.4414 117.224 34.181 118.109 33.6602C118.995 33.1393 119.77 32.4427 120.434 31.5703L122.621 33.3086C122.165 33.9987 121.586 34.6562 120.883 35.2812C120.18 35.9062 119.314 36.4141 118.285 36.8047C117.27 37.1953 116.065 37.3906 114.672 37.3906ZM131.039 15.8672V37H127.406V15.8672H131.039ZM127.133 10.2617C127.133 9.67578 127.309 9.18099 127.66 8.77734C128.025 8.3737 128.559 8.17188 129.262 8.17188C129.952 8.17188 130.479 8.3737 130.844 8.77734C131.221 9.18099 131.41 9.67578 131.41 10.2617C131.41 10.8216 131.221 11.3034 130.844 11.707C130.479 12.0977 129.952 12.293 129.262 12.293C128.559 12.293 128.025 12.0977 127.66 11.707C127.309 11.3034 127.133 10.8216 127.133 10.2617ZM140.766 7V37H137.133V7H140.766ZM155.336 37.3906C153.865 37.3906 152.53 37.1432 151.332 36.6484C150.147 36.1406 149.125 35.431 148.266 34.5195C147.419 33.6081 146.768 32.5273 146.312 31.2773C145.857 30.0273 145.629 28.6602 145.629 27.1758V26.3555C145.629 24.6367 145.883 23.1068 146.391 21.7656C146.898 20.4115 147.589 19.2656 148.461 18.3281C149.333 17.3906 150.323 16.681 151.43 16.1992C152.536 15.7174 153.682 15.4766 154.867 15.4766C156.378 15.4766 157.68 15.737 158.773 16.2578C159.88 16.7786 160.785 17.5078 161.488 18.4453C162.191 19.3698 162.712 20.4635 163.051 21.7266C163.389 22.9766 163.559 24.3438 163.559 25.8281V27.4492H147.777V24.5H159.945V24.2266C159.893 23.2891 159.698 22.3776 159.359 21.4922C159.034 20.6068 158.513 19.8776 157.797 19.3047C157.081 18.7318 156.104 18.4453 154.867 18.4453C154.047 18.4453 153.292 18.6211 152.602 18.9727C151.911 19.3112 151.319 19.819 150.824 20.4961C150.329 21.1732 149.945 22 149.672 22.9766C149.398 23.9531 149.262 25.0794 149.262 26.3555V27.1758C149.262 28.1784 149.398 29.1224 149.672 30.0078C149.958 30.8802 150.368 31.6484 150.902 32.3125C151.449 32.9766 152.107 33.4974 152.875 33.875C153.656 34.2526 154.542 34.4414 155.531 34.4414C156.807 34.4414 157.888 34.181 158.773 33.6602C159.659 33.1393 160.434 32.4427 161.098 31.5703L163.285 33.3086C162.829 33.9987 162.25 34.6562 161.547 35.2812C160.844 35.9062 159.978 36.4141 158.949 36.8047C157.934 37.1953 156.729 37.3906 155.336 37.3906ZM181.098 32.8984V7H184.73V37H181.41L181.098 32.8984ZM166.879 26.668V26.2578C166.879 24.6432 167.074 23.1784 167.465 21.8633C167.868 20.5352 168.435 19.3958 169.164 18.4453C169.906 17.4948 170.785 16.7656 171.801 16.2578C172.829 15.737 173.975 15.4766 175.238 15.4766C176.566 15.4766 177.725 15.7109 178.715 16.1797C179.717 16.6354 180.564 17.306 181.254 18.1914C181.957 19.0638 182.51 20.1185 182.914 21.3555C183.318 22.5924 183.598 23.9922 183.754 25.5547V27.3516C183.611 28.901 183.331 30.2943 182.914 31.5312C182.51 32.7682 181.957 33.8229 181.254 34.6953C180.564 35.5677 179.717 36.2383 178.715 36.707C177.712 37.1628 176.54 37.3906 175.199 37.3906C173.962 37.3906 172.829 37.1237 171.801 36.5898C170.785 36.056 169.906 35.3073 169.164 34.3438C168.435 33.3802 167.868 32.2474 167.465 30.9453C167.074 29.6302 166.879 28.2044 166.879 26.668ZM170.512 26.2578V26.668C170.512 27.7227 170.616 28.7122 170.824 29.6367C171.046 30.5612 171.384 31.375 171.84 32.0781C172.296 32.7812 172.875 33.3346 173.578 33.7383C174.281 34.1289 175.121 34.3242 176.098 34.3242C177.296 34.3242 178.279 34.0703 179.047 33.5625C179.828 33.0547 180.453 32.3841 180.922 31.5508C181.391 30.7174 181.755 29.8125 182.016 28.8359V24.1289C181.859 23.4128 181.632 22.7227 181.332 22.0586C181.046 21.3815 180.668 20.7826 180.199 20.2617C179.743 19.7279 179.177 19.3047 178.5 18.9922C177.836 18.6797 177.048 18.5234 176.137 18.5234C175.147 18.5234 174.294 18.7318 173.578 19.1484C172.875 19.5521 172.296 20.112 171.84 20.8281C171.384 21.5312 171.046 22.3516 170.824 23.2891C170.616 24.2135 170.512 25.2031 170.512 26.2578Z" fill="black"/>
</svg>
